PathFileType	4	(X/Y/Z)	c:/Users/goper/Files/vsCode/490R/osim_files/C15/C15_Slow_03.trc
DataRate	CameraRate	NumFrames	NumMarkers	Units                	OrigDataRate	OrigDataStartFrame	OrigNumFrames
250.00	250.00	4	36	mm	250.0	2989	3984
                Frame#	Time	LPSIS			LASIS			LTH1			LTH2			LTH3			LTH4			LLFE			LMFE			LSH1			LSH2			LSH3			LSH4			LLMAL			LMMAL			LCAL			LMTP5			LTOE			LMTP1			RPSIS			RASIS			RTH1			RTH2			RTH3			RTH4			RLFE			RMFE			RSH1			RSH2			RSH3			RSH4			RLMAL			RMMAL			RCAL			RMTP1			RTOE			RMTP5		
		X1	Y1	Z1	X2	Y2	Z2	X3	Y3	Z3	X4	Y4	Z4	X5	Y5	Z5	X6	Y6	Z6	X7	Y7	Z7	X8	Y8	Z8	X9	Y9	Z9	X10	Y10	Z10	X11	Y11	Z11	X12	Y12	Z12	X13	Y13	Z13	X14	Y14	Z14	X15	Y15	Z15	X16	Y16	Z16	X17	Y17	Z17	X18	Y18	Z18	X19	Y19	Z19	X20	Y20	Z20	X21	Y21	Z21	X22	Y22	Z22	X23	Y23	Z23	X24	Y24	Z24	X25	Y25	Z25	X26	Y26	Z26	X27	Y27	Z27	X28	Y28	Z28	X29	Y29	Z29	X30	Y30	Z30	X31	Y31	Z31	X32	Y32	Z32	X33	Y33	Z33	X34	Y34	Z34	X35	Y35	Z35	X36	Y36	Z36

2989	11.95200	-1753.81824	1029.24170	318.07953	-1919.50806	1003.75568	381.48279	-1828.60278	613.48541	430.11072	-1827.35498	568.11792	415.06158	-1879.74170	620.11725	425.23697	-1879.02148	575.24713	415.27933	-1837.09521	491.84250	392.55109	-1842.39099	478.95535	275.61304	-1762.71179	390.63611	405.20331	-1754.84265	346.45792	405.55536	-1821.66077	377.46121	402.55603	-1807.44873	334.59158	405.39362	-1734.87280	86.41814	334.48190	-1757.36121	114.16833	247.57324	-1672.23145	64.79635	289.58783	-1854.64392	40.39866	353.10632	-1910.27466	61.39917	289.95224	-1868.86646	32.54980	231.62564	-1754.02173	1028.39392	195.84949	-1909.60205	1008.15698	132.58072	-1967.34155	655.91382	56.43605	-1987.93140	612.98407	65.03824	-2024.23083	676.16125	67.62931	-2036.93652	629.97144	70.63645	-2024.44958	529.02405	91.82097	-2025.92688	509.42548	210.95335	-1917.61182	454.66727	86.64812	-1903.42542	413.80936	83.45901	-1972.85132	426.65894	76.36533	-1950.94409	392.37405	72.74193	-1842.14539	152.28549	134.88600	-1895.99597	160.32129	212.85236	-1786.99707	143.78885	194.45868	-1975.88306	60.78512	189.08478	-2002.26599	76.75810	129.05246	-1923.51819	62.62008	82.05755
2990	11.95600	-1756.87329	1029.13611	317.82635	-1922.27673	1003.45728	381.55887	-1830.17773	613.47034	430.08807	-1828.32739	567.86279	414.65497	-1881.45593	619.93500	425.15091	-1880.53796	574.84216	415.14575	-1838.12183	491.73508	392.58118	-1843.29565	478.87326	275.52197	-1763.38599	390.71472	405.12433	-1755.40369	346.55643	405.49646	-1822.42285	377.38535	402.57578	-1808.10364	334.57764	405.36063	-1734.91614	86.51631	334.41626	-1757.12451	114.26063	247.18242	-1672.24011	64.87064	289.58276	-1854.63794	40.38566	353.10513	-1910.45093	61.41338	290.05011	-1868.84363	32.55452	231.58165	-1757.30945	1028.23730	195.57489	-1912.95728	1008.14435	132.63002	-1971.06592	655.89233	56.79669	-1991.81567	612.95587	65.56360	-2027.94946	676.26709	68.11938	-2040.78516	630.17480	71.22215	-2028.54333	529.24207	92.50868	-2029.93323	509.60785	211.56378	-1922.70776	452.42624	86.67883	-1909.62122	411.16504	83.49567	-1978.68604	425.65942	76.65065	-1957.47253	390.69635	72.92670	-1854.09241	148.31310	134.88319	-1907.73560	157.30667	212.80818	-1798.80969	138.72369	194.52428	-1990.07690	59.88005	188.93347	-2015.62048	76.16148	128.70663	-1937.29810	60.51017	81.75462
2991	11.96000	-1759.74756	1029.13586	317.44159	-1925.23914	1003.23883	381.64615	-1831.77795	613.45270	430.01996	-1829.87720	567.87842	414.78122	-1882.98596	619.72302	425.08109	-1881.84277	574.57306	415.42310	-1839.37830	491.98282	393.38226	-1844.49988	478.69095	275.55350	-1764.04785	390.79514	405.05603	-1756.10107	346.61572	405.42288	-1823.03674	377.32654	402.61179	-1808.69788	334.52393	405.40335	-1734.96033	86.62536	334.37137	-1757.61621	114.32636	247.40796	-1672.64771	64.91093	288.88876	-1854.64575	40.35908	353.12363	-1910.40503	61.28193	290.00735	-1868.86292	32.51618	231.58795	-1760.55786	1028.05115	195.28917	-1916.40295	1008.01544	132.67046	-1974.79187	655.74664	57.21745	-1995.57068	612.92358	66.06322	-2031.60388	676.31580	68.65614	-2044.50134	630.24091	71.89154	-2032.41846	529.24902	93.25512	-2033.79285	509.66339	212.19704	-1927.89270	450.07956	86.67928	-1915.72485	408.45319	83.50921	-1984.54700	424.64984	76.90726	-1964.01538	388.90732	73.15474	-1866.12439	144.41280	134.91266	-1919.62927	154.35876	212.76295	-1811.19263	133.55319	194.68423	-2004.05969	58.59171	188.28000	-2029.13989	75.76695	128.30183	-1951.25684	58.61251	81.56191
2992	11.96400	-1762.76147	1028.98547	317.18036	-1928.06677	1002.93219	381.69391	-1833.32312	613.43958	430.02124	-1831.64087	568.05121	415.05756	-1884.58948	619.55133	425.00345	-1883.51111	574.46509	415.05661	-1840.37219	491.92773	393.44031	-1845.47363	478.58224	275.50824	-1764.90015	390.86362	405.04428	-1756.80334	346.73727	405.40668	-1823.79932	377.24594	402.68414	-1809.31689	334.49472	405.46036	-1735.03125	86.78631	334.28198	-1757.44238	114.43033	247.07944	-1672.31067	64.98666	289.60843	-1854.64893	40.34730	353.14401	-1910.45142	61.24933	290.03860	-1868.84570	32.48502	231.58505	-1763.72058	1027.93140	194.98698	-1919.79248	1007.87726	132.73788	-1978.38831	655.51440	57.65084	-1999.28845	612.72858	66.69473	-2035.11121	676.20178	69.18377	-2048.04224	630.14313	72.60085	-2036.16919	529.22113	93.94137	-2037.36072	509.63559	212.71683	-1933.01245	447.62384	86.70612	-1921.96497	405.67172	83.54609	-1990.31128	423.58304	77.20061	-1970.57312	387.15872	73.35953	-1878.22876	140.55260	134.87076	-1931.70251	151.72894	212.69658	-1823.54224	128.49107	194.85770	-2018.25757	57.93180	188.16096	-2042.83240	75.54350	127.82169	-1965.04504	56.65499	81.24149
